#!OML:ASF H:\BreakDance\Project 1\Capture day 1\Session 1\Male.ASF
:FULLY-SPECIFIED
:DEGREES
874
root -4.00412 16.1782 -6.12357 -525.61 -127.469 539.829
lowerback 1.62698 0.472004 9.85157
upperback 3.13244 0.558336 1.45488
thorax 2.44219 0.468064 -4.00081
lowerneck -4.48053 5.57293 1.42516
upperneck -1.65563 7.28841 8.70426
head -0.0527487 3.6313 2.58439
rclavicle 4.21423e-014 1.98785e-014
rhumerus -20.2246 0.201686 -84.6568
rradius 42.3259
rwrist -7.4246
rhand -18.4329 324.994
rfingers 7.12502
rthumb 7.85255 -424.84
lclavicle 4.21423e-014 1.98785e-014
lhumerus 14.0971 -24.7372 75.1147
lradius 44.1582
lwrist 14.4624
lhand -34.2499 332.054
lfingers 7.12502
lthumb -7.42075 1.90353
rfemur -36.4465 1.40806 15.779
rtibia 49.4682
rfoot -31.0246 -2.27229
rtoes -14.7997
lfemur -40.1334 20.2444 -11.0138
ltibia 59.3251
lfoot -19.6694 7.32925
ltoes -28.0391
875
root -4.04569 16.1847 -6.00535 -525.609 -126.826 539.412
lowerback 1.43572 0.46767 9.70074
upperback 3.15013 0.525167 1.55139
thorax 2.55976 0.45182 -3.81476
lowerneck -4.40758 4.78265 0.802541
upperneck -1.55215 6.2667 8.60455
head -0.00557443 3.13226 2.65347
rclavicle 5.24792e-014 -6.36111e-015
rhumerus -20.0319 1.23791 -84.6662
rradius 42.7663
rwrist -6.98254
rhand -18.8437 325.265
rfingers 7.12502
rthumb 7.45598 -424.583
lclavicle 5.24792e-014 -6.36111e-015
lhumerus 14.0214 -24.0712 74.6927
lradius 44.9049
lwrist 14.3462
lhand -34.2097 331.811
lfingers 7.12502
lthumb -7.38195 1.66229
rfemur -35.4207 1.97697 15.691
rtibia 48.8755
rfoot -31.2325 -2.31536
rtoes -15.3502
lfemur -40.0758 19.8455 -10.1119
ltibia 57.8783
lfoot -19.8623 8.17959
ltoes -27.6924
876
root -4.08683 16.1897 -5.886 -525.593 -126.161 538.985
lowerback 1.26028 0.449624 9.58361
upperback 3.16607 0.477439 1.60638
thorax 2.66605 0.429198 -3.69134
lowerneck -4.28845 4.01011 0.297085
upperneck -1.48661 5.26524 8.43285
head 0.0309201 2.63895 2.67677
rclavicle -1.06151e-013 1.90833e-014
rhumerus -19.79 2.24297 -84.7365
rradius 43.1234
rwrist -6.54875
rhand -19.1175 325.534
rfingers 7.12502
rthumb 7.19172 -424.324
lclavicle -1.06151e-013 1.90833e-014
lhumerus 13.8809 -23.4135 74.2289
lradius 45.666
lwrist 14.2816
lhand -34.1631 331.59
lfingers 7.12502
lthumb -7.33696 1.44236
rfemur -34.4151 2.55874 15.5925
rtibia 48.2866
rfoot -31.4311 -2.30937
rtoes -15.7867
lfemur -39.9377 19.3482 -9.16113
ltibia 56.3725
lfoot -19.9186 9.05144
ltoes -27.6576
877
root -4.12738 16.1932 -5.76555 -525.548 -125.479 538.54
lowerback 1.10569 0.424567 9.5211
upperback 3.17399 0.425025 1.61513
thorax 2.75334 0.405337 -3.64696
lowerneck -4.05923 3.25654 -0.0163128
upperneck -1.52088 4.28783 8.1388
head 0.0257065 2.14999 2.62135
rclavicle 3.97569e-015 -2.38542e-015
rhumerus -19.5141 3.22033 -84.8714
rradius 43.4098
rwrist -6.15954
rhand -19.308 325.767
rfingers 7.12502
rthumb 7.00784 -424.097
lclavicle 3.97569e-015 -2.38542e-015
lhumerus 13.6997 -22.8034 73.7131
lradius 46.4179
lwrist 14.2928
lhand -34.1163 331.37
lfingers 7.12502
lthumb -7.29184 1.22438
rfemur -33.433 3.15254 15.4923
rtibia 47.7018
rfoot -31.6229 -2.29574
rtoes -16.2113
lfemur -39.7095 18.7216 -8.14029
ltibia 54.8057
lfoot -19.8571 9.86663
ltoes -27.6044
878
root -4.16737 16.1957 -5.64401 -525.486 -124.783 538.093
lowerback 0.959475 0.394826 9.49536
upperback 3.17619 0.36901 1.58722
thorax 2.83053 0.380731 -3.66158
lowerneck -3.64506 2.5177 -0.0924526
upperneck -1.73159 3.33311 7.66538
head -0.0608754 1.66188 2.45985
rclavicle 6.2816e-014 -9.54166e-015
rhumerus -19.2153 4.20176 -85.0482
rradius 43.649
rwrist -5.84371
rhand -19.4833 325.955
rfingers 7.12502
rthumb 6.8386 -423.915
lclavicle 6.2816e-014 -9.54166e-015
lhumerus 13.4795 -22.2503 73.1663
lradius 47.1645
lwrist 14.381
lhand -34.0767 331.149
lfingers 7.12502
lthumb -7.2536 1.00499
rfemur -32.4787 3.75963 15.3772
rtibia 47.124
rfoot -31.8125 -2.28438
rtoes -16.6199
lfemur -39.3865 17.9407 -7.05537
ltibia 53.1755
lfoot -19.7043 10.5861
ltoes -27.3464
879
root -4.20685 16.197 -5.52145 -525.425 -124.075 537.666
lowerback 0.807223 0.364273 9.47837
upperback 3.17729 0.312194 1.53666
thorax 2.9102 0.356518 -3.70488
lowerneck -3.16545 1.79532 -0.149672
upperneck -2.04019 2.40309 7.16968
head -0.193496 1.18333 2.29095
rclavicle 4.41302e-014 -3.18055e-015
rhumerus -18.9067 5.20622 -85.2376
rradius 43.8691
rwrist -5.60594
rhand -19.6506 326.068
rfingers 7.12502
rthumb 6.67711 -423.807
lclavicle 4.41302e-014 -3.18055e-015
lhumerus 13.2112 -21.7604 72.6127
lradius 47.9348
lwrist 14.5245
lhand -34.0746 330.967
lfingers 7.12502
lthumb -7.25157 0.822593
rfemur -31.5533 4.36756 15.2354
rtibia 46.5589
rfoot -32.0069 -2.26576
rtoes -17.0174
lfemur -38.9685 17.0028 -5.91932
ltibia 51.4829
lfoot -19.4744 11.1908
ltoes -26.9107
880
root -4.24607 16.1965 -5.39787 -525.363 -123.356 537.246
lowerback 0.641555 0.337338 9.46412
upperback 3.18493 0.258458 1.47935
thorax 3.00483 0.33488 -3.7568
lowerneck -2.50815 1.07712 -0.10036
upperneck -2.55175 1.48456 6.56577
head -0.421836 0.703765 2.07244
rclavicle 6.04305e-014 2.8625e-014
rhumerus -18.5876 6.24271 -85.4122
rradius 44.0781
rwrist -5.40983
rhand -19.8082 326.1
rfingers 7.12502
rthumb 6.52495 -423.78
lclavicle 6.04305e-014 2.8625e-014
lhumerus 12.8968 -21.3275 72.0781
lradius 48.732
lwrist 14.6876
lhand -34.1075 330.832
lfingers 7.12502
lthumb -7.28335 0.687041
rfemur -30.6484 4.96653 15.0792
rtibia 46.0123
rfoot -32.2077 -2.24435
rtoes -17.4592
lfemur -38.4546 15.9163 -4.72588
ltibia 49.7346
lfoot -19.1448 11.6948
ltoes -26.4637
881
root -4.28529 16.1935 -5.27314 -525.288 -122.621 536.813
lowerback 0.453984 0.3141 9.44746
upperback 3.20541 0.205847 1.43226
thorax 3.12542 0.314979 -3.7968
lowerneck -1.91526 0.407894 -0.264792
upperneck -3.02774 0.627069 6.14042
head -0.637581 0.260928 1.96027
rclavicle 7.55382e-014 -1.51076e-014
rhumerus -18.2497 7.32203 -85.5516
rradius 44.2724
rwrist -5.20375
rhand -19.9974 326.077
rfingers 7.12502
rthumb 6.34231 -423.808
lclavicle 7.55382e-014 -1.51076e-014
lhumerus 12.5284 -20.9294 71.581
lradius 49.5538
lwrist 14.8497
lhand -34.1565 330.729
lfingers 7.12502
lthumb -7.3306 0.582067
rfemur -29.7602 5.55955 14.9206
rtibia 45.4882
rfoot -32.4128 -2.20163
rtoes -17.9119
lfemur -37.8538 14.697 -3.47629
ltibia 47.9428
lfoot -18.6595 12.1613
ltoes -26.2231
882
root -4.32472 16.1883 -5.14715 -525.199 -121.863 536.364
lowerback 0.239984 0.289593 9.40314
upperback 3.24261 0.146807 1.41032
thorax 3.27721 0.292369 -3.79547
lowerneck -1.33572 -0.198527 -0.560073
upperneck -3.49263 -0.152956 5.80833
head -0.853461 -0.139086 1.90906
rclavicle 5.08889e-014 -1.59028e-015
rhumerus -17.8795 8.46826 -85.6414
rradius 44.4445
rwrist -4.98256
rhand -20.2086 326.006
rfingers 7.12502
rthumb 6.1384 -423.885
lclavicle 5.08889e-014 -1.59028e-015
lhumerus 12.0983 -20.5293 71.1354
lradius 50.3914
lwrist 14.997
lhand -34.2224 330.64
lfingers 7.12502
lthumb -7.39426 0.491048
rfemur -28.8896 6.1559 14.7533
rtibia 44.9872
rfoot -32.6233 -2.10383
rtoes -18.2979
lfemur -37.1764 13.3392 -2.18033
ltibia 46.1271
lfoot -17.9964 12.6306
ltoes -26.2368
883
root -4.36451 16.181 -5.01973 -525.123 -121.073 535.929
lowerback 0.0217759 0.268073 9.34317
upperback 3.28222 0.0918789 1.38372
thorax 3.43441 0.271723 -3.79052
lowerneck -0.814043 -0.734419 -0.954164
upperneck -3.86992 -0.849618 5.58876
head -1.03623 -0.492221 1.91672
rclavicle -8.34896e-015 8.74653e-015
rhumerus -17.4952 9.64229 -85.7136
rradius 44.5829
rwrist -4.75413
rhand -20.4346 325.897
rfingers 7.12502
rthumb 5.92024 -424.001
lclavicle -8.34896e-015 8.74653e-015
lhumerus 11.5982 -20.1629 70.7142
lradius 51.2328
lwrist 15.1264
lhand -34.3061 330.547
lfingers 7.12502
lthumb -7.47505 0.394616
rfemur -28.0358 6.77329 14.5542
rtibia 44.5084
rfoot -32.8412 -1.94965
rtoes -18.5826
lfemur -36.4339 11.8165 -0.860626
ltibia 44.3127
lfoot -17.1694 13.1441
ltoes -26.4544
